<?xml version="1.0" standalone="no"?>
<!DOCTYPE svg PUBLIC "-//W3C//DTD SVG 20010904//EN"
 "http://www.w3.org/TR/2001/REC-SVG-20010904/DTD/svg10.dtd">
<svg version="1.0" xmlns="http://www.w3.org/2000/svg"
 width="980.000000pt" height="844.000000pt" viewBox="0 0 980.000000 844.000000"
 preserveAspectRatio="xMidYMid meet">

<g transform="translate(0.000000,844.000000) scale(0.100000,-0.100000)"
fill="#000000" stroke="none">
<path d="M4169 8420 c-200 -36 -396 -127 -530 -246 -30 -26 -835 -818 -1789
-1760 -1230 -1214 -1744 -1728 -1767 -1765 -57 -95 -76 -162 -77 -279 -1 -129
23 -215 86 -308 29 -44 600 -613 1803 -1799 1896 -1870 1830 -1807 2013 -1883
41 -18 119 -44 171 -58 86 -23 114 -25 276 -25 162 0 190 2 277 26 53 14 132
41 176 60 286 124 508 383 599 698 l27 94 4 488 3 488 62 -6 c34 -4 139 -16
232 -27 1160 -135 1985 -549 2668 -1338 111 -129 262 -327 357 -470 142 -213
286 -300 496 -300 235 0 426 134 513 360 26 65 26 66 29 455 5 524 -14 818
-74 1174 -292 1738 -1407 3227 -2988 3992 -379 183 -782 324 -1166 408 l-125
28 -6 559 -5 559 -27 93 c-54 188 -140 337 -275 474 -136 140 -290 230 -483
284 -81 22 -118 26 -264 29 -93 2 -191 0 -216 -5z m339 -2974 c710 -34 1318
-199 1922 -522 945 -506 1687 -1379 2040 -2399 47 -137 122 -396 116 -402 -2
-2 -46 29 -98 69 -110 86 -354 252 -483 328 -569 335 -1259 562 -2020 665
-400 53 -691 73 -1232 82 l-393 6 -2 -952 -3 -953 -1517 1496 -1517 1496 347
344 c191 188 874 862 1517 1495 l1170 1153 3 -950 2 -949 148 -7z"/>
</g>
</svg>
